<svg xmlns="http://www.w3.org/2000/svg" width="100" height="100" viewBox="0 0 100 100">
  <defs>
    <style>
      .cls-1 {
        fill: #fff;
        fill-rule: evenodd;
      }
    </style>
  </defs>
  <path class="cls-1" d="M49.872,0.046A50.058,50.058,0,1,0,99.919,50,50.016,50.016,0,0,0,49.872.046ZM36,73.732c-3.052-.058-6.107-0.049-9.16,0-0.779.012-1.051-.135-1.049-0.993q0.048-16.1.01-32.193c0-.661.1-0.952,0.875-0.94q4.8,0.076,9.6,0c0.769-.012.867,0.271,0.864,0.932-0.023,5.347-.013,10.695-0.013,16.042s-0.025,10.695.024,16.042C37.16,73.551,36.892,73.749,36,73.732ZM37.492,31.2c-0.9,2.356-3.157,3.743-6.077,3.729-4.47-.021-7.332-3.814-5.931-7.861,1.112-3.209,5.062-4.792,8.634-3.459A5.817,5.817,0,0,1,37.492,31.2ZM77.054,73.725c-3.127-.03-6.254-0.042-9.38.007-0.8.013-1.036-.169-1.029-1.007,0.041-5.6.022-11.207,0.021-16.81a15.345,15.345,0,0,0-.4-3.9,5.571,5.571,0,0,0-9.121-2.943,6.444,6.444,0,0,0-2.413,5.256c0.022,6.113-.012,12.226.029,18.338,0.006,0.87-.232,1.074-1.074,1.06-3.126-.052-6.254-0.04-9.38-0.005-0.69.008-.918-0.147-0.916-0.887q0.045-16.21.018-32.419c0-.59.109-0.816,0.756-0.81q4.908,0.048,9.817,0a0.624,0.624,0,0,1,.771.794c-0.044,1.228-.013,2.458-0.013,3.939,4.741-6.251,12.9-7.407,18.461-2.781,2.653,2.207,3.867,5.19,4.455,8.494a22.568,22.568,0,0,1,.309,3.912c0.015,6.295,0,12.589.032,18.884C77.995,73.614,77.722,73.732,77.054,73.725Z"/>
</svg>
