<svg xmlns="http://www.w3.org/2000/svg" width="100" height="100" viewBox="0 0 100 100">
  <defs>
    <style>
      .cls-1 {
        fill: #fff;
        fill-rule: evenodd;
      }
    </style>
  </defs>
  <path class="cls-1" d="M24.427,39.783a4.561,4.561,0,0,0-4.34,5.1,4.479,4.479,0,0,0,4.739,4.381A4.751,4.751,0,0,0,24.427,39.783ZM75.465,39.7a4.585,4.585,0,0,0-4.471,4.411,4.663,4.663,0,0,0,4.625,4.6A4.475,4.475,0,0,0,80.129,44.1,4.309,4.309,0,0,0,75.465,39.7ZM99.986,23.929C99.972,12.488,92.616,5.075,81.26,5.058q-15.592-.024-31.184,0c-10.7,0-21.4-.055-32.092.017C8.009,5.138.286,12.5,0.166,22.34Q-0.084,42.708.16,63.081c0.11,9.957,7.748,17.3,17.673,17.333,6.56,0.025,13.123.127,19.678-.059a4.4,4.4,0,0,1,4.669,2.816C43.9,86.6,45.887,89.9,47.874,93.182c1.468,2.426,2.778,2.425,4.224.022,2.082-3.462,4.164-6.934,6.021-10.519a3.847,3.847,0,0,1,4.054-2.308c6.255,0.114,12.513.043,18.77,0.042,11.806,0,19.036-7.245,19.045-19.093Q100,42.628,99.986,23.929Zm-67.6,25.665c-2.107,3.614-6.086,5.177-9.83,3.366-1.938-.937-3.354.487-5.1,0.263-1.641-.211-2.271-0.614-2.251-2.328,0.075-6.274.106-12.55-.011-18.823-0.04-2.169,1.124-2.138,2.659-2.166,1.62-.029,2.784.158,2.621,2.231-0.116,1.474-.023,2.965-0.023,4.854,4.367-2.372,8.046-2.156,11.1,1.245C34.171,41.155,34.434,46.076,32.383,49.594Zm7.255,3.566c-1.553,0-2.709-.053-2.643-2.188,0.131-4.231.009-8.47,0.048-12.7,0.015-1.577-.13-2.944-1.629-3.942-1.571-1.045-.788-2.746-0.726-4.157,0.042-.95.9-0.432,1.411-0.342a7.577,7.577,0,0,1,6.129,7.235c0.163,2.409.031,4.838,0.031,7.258h0.032c0,2.218-.09,4.442.026,6.654C42.429,53.08,41.195,53.159,39.639,53.159Zm15.06,0.5a9.125,9.125,0,0,1-.147-18.25A9.125,9.125,0,0,1,54.7,53.661Zm30.156-1.344c-0.083,4.225-2.707,7.451-6.432,7.976-0.856.12-2.285,0.758-2.439-.789-0.117-1.182-1.028-2.881,1.157-3.468,2.2-.593,2.905-2.214,2.736-4.976-3.892,2.756-7.454,2.515-10.608-.193-2.863-2.459-3.465-5.838-2.488-9.421a8.069,8.069,0,0,1,11.264-5.239,2.048,2.048,0,0,0,2.473.011c2.563-1.474,4.348-.154,4.356,2.755C84.886,43.42,84.941,47.87,84.854,52.317ZM54.838,40.088a4.1,4.1,0,0,0-4.494,4.449c0,2.716,1.572,4.357,4.209,4.4,2.678,0.038,4.266-1.53,4.315-4.261C58.918,41.9,57.417,40.2,54.838,40.088Z"/>
</svg>
