<svg xmlns="http://www.w3.org/2000/svg" width="7725" height="1217" viewBox="0 0 7725 1217">
  <defs>
    <style>
      .cls-1 {
        fill-rule: evenodd;
      }
    </style>
  </defs>
  <path id="YEONHEE_BAEK" data-name="YEONHEE BAEK" class="cls-1" d="M642.248,187.645c-29.689-14.251-59.378-8.313-77.192,23.751L357.233,583.1,142.285,210.209c-17.813-32.064-51.065-36.815-78.379-21.376-29.689,15.438-40.377,43.939-22.564,73.628l252.951,429.9V986.873c0,34.437,28.5,49.877,59.378,49.877,32.064,0,59.378-15.44,59.378-49.877V692.358L666,261.274C686.188,226.834,670.749,200.708,642.248,187.645Zm591.362-1.188H826.273c-68.879,0-91.442,21.377-91.442,87.88v668.6c0,66.507,22.563,87.877,91.442,87.877H1241.92c28.5,0,41.56-22.56,41.56-49.875s-13.06-49.877-41.56-49.877H853.587V647.231H1209.85c27.32,0,40.38-22.564,40.38-49.878,0-26.126-13.06-48.69-40.38-48.69H853.587V286.212H1233.61c28.5,0,41.56-22.563,41.56-49.877S1262.11,186.457,1233.61,186.457Zm447.67-13.063c-228.01,0-352.71,130.632-352.71,407.333v55.816c0,276.7,124.7,407.337,352.71,407.337s352.7-130.636,352.7-407.337V580.727C2033.98,304.026,1909.29,173.394,1681.28,173.394Zm0,108.068c156.76,0,232.76,89.067,232.76,308.766v36.814c0,219.7-76,307.578-232.76,307.578s-232.76-87.879-232.76-307.578V590.228C1448.52,370.529,1524.52,281.462,1681.28,281.462ZM2694.22,180.52c-28.5,0-54.63,14.25-54.63,47.5V885.93c-13.06-43.939-29.69-79.566-49.88-114L2302.32,274.337c-45.12-78.379-62.94-90.255-108.07-90.255-60.56,0-83.12,21.376-83.12,86.692V989.248c0,33.252,27.31,47.5,55.81,47.5s55.82-14.25,55.82-47.5V331.34c11.87,43.939,29.69,79.566,48.69,114.006l287.39,497.587c45.12,79.567,64.12,90.257,108.06,90.257,60.57,0,83.13-21.38,83.13-86.694V228.022C2750.03,194.77,2722.72,180.52,2694.22,180.52Zm224.4,0c-30.88,0-59.38,15.438-59.38,49.877V986.873c0,34.437,28.5,49.877,59.38,49.877,32.06,0,60.56-15.44,60.56-49.877V638.918h397.84V986.873c0,34.437,27.31,49.877,58.19,49.877,32.06,0,60.56-15.44,60.56-49.877V230.4c0-34.439-28.5-49.877-60.56-49.877-30.88,0-58.19,15.438-58.19,49.877V539.163H2979.18V230.4C2979.18,195.958,2950.68,180.52,2918.62,180.52Zm1185.14,5.937H3696.42c-68.88,0-91.44,21.377-91.44,87.88v668.6c0,66.507,22.56,87.877,91.44,87.877h415.65c28.5,0,41.56-22.56,41.56-49.875s-13.06-49.877-41.56-49.877H3723.74V647.231h356.27c27.31,0,40.37-22.564,40.37-49.878,0-26.126-13.06-48.69-40.37-48.69H3723.74V286.212h380.02c28.5,0,41.56-22.563,41.56-49.877S4132.26,186.457,4103.76,186.457Zm625.8,0H4322.23c-68.88,0-91.44,21.377-91.44,87.88v668.6c0,66.507,22.56,87.877,91.44,87.877h415.65c28.5,0,41.56-22.56,41.56-49.875s-13.06-49.877-41.56-49.877H4349.54V647.231h356.27c27.32,0,40.38-22.564,40.38-49.878,0-26.126-13.06-48.69-40.38-48.69H4349.54V286.212h380.02c28.5,0,41.57-22.563,41.57-49.877S4758.06,186.457,4729.56,186.457Zm640.05,0h-219.7c-68.88,0-91.44,21.377-91.44,87.88v668.6c0,66.507,22.56,87.877,91.44,87.877h257.7c184.07,0,268.39-84.314,268.39-226.821V782.613c0-121.132-68.88-180.51-175.76-195.948,100.94-24.939,136.57-96.192,136.57-173.384V396.656C5636.81,254.148,5550.12,186.457,5369.61,186.457ZM5177.22,541.538V286.212h150.82c135.39,0,188.83,32.065,188.83,116.381v13.064c0,93.817-48.69,125.881-181.7,125.881H5177.22Zm0,389.52V638.918h160.32c165.08,0,217.33,45.127,217.33,136.569V793.3c0,109.255-64.13,137.757-198.32,137.757H5177.22ZM6033.41,180.52c-30.87,0-55.81,13.063-71.25,53.44L5679.52,963.122c-13.06,34.439,2.38,58.188,32.06,68.878,30.88,10.69,62.95,5.94,74.82-29.69l80.75-216.135h328.96l78.38,212.574c14.25,39.191,47.5,42.751,79.56,33.251,29.69-9.5,46.32-38,33.26-72.441l-281.46-725.6C6090.42,193.583,6065.48,180.52,6033.41,180.52Zm-1.18,146.07c14.25,47.5,30.87,95,52.25,154.382l76,205.448h-257.7l77.19-205.448C6002.54,420.407,6016.79,378.842,6032.23,326.59Zm908.43-140.133H6533.33c-68.88,0-91.45,21.377-91.45,87.88v668.6c0,66.507,22.57,87.877,91.45,87.877h415.64c28.5,0,41.57-22.56,41.57-49.875s-13.07-49.877-41.57-49.877H6560.64V647.231h356.27c27.31,0,40.38-22.564,40.38-49.878,0-26.126-13.07-48.69-40.38-48.69H6560.64V286.212h380.02c28.5,0,41.56-22.563,41.56-49.877S6969.16,186.457,6940.66,186.457Zm186.41-5.937c-30.88,0-59.38,15.438-59.38,49.877V986.873c0,34.437,28.5,49.877,59.38,49.877,32.06,0,60.56-15.44,60.56-49.877V742.236L7289.76,637.73l299.27,377.64c21.38,28.51,55.81,27.32,79.57,7.13,26.12-20.19,33.25-51.065,9.5-79.567L7368.14,561.726l281.45-289.764c21.38-22.564,16.63-53.44-4.75-73.629-19-21.376-54.62-24.939-74.81-2.375l-382.4,402.583V230.4C7187.63,195.958,7159.13,180.52,7127.07,180.52Z"/>
</svg>
