<svg xmlns="http://www.w3.org/2000/svg" width="1854" height="292" viewBox="0 0 1854 292">
  <metadata><?xpacket begin="﻿" id="W5M0MpCehiHzreSzNTczkc9d"?>
<x:xmpmeta xmlns:x="adobe:ns:meta/" x:xmptk="Adobe XMP Core 5.6-c145 79.163499, 2018/08/13-16:40:22        ">
   <rdf:RDF xmlns:rdf="http://www.w3.org/1999/02/22-rdf-syntax-ns#">
      <rdf:Description rdf:about=""
            xmlns:xmp="http://ns.adobe.com/xap/1.0/">
         <xmp:CreatorTool>Adobe Photoshop CC 2019 (Macintosh)</xmp:CreatorTool>
      </rdf:Description>
   </rdf:RDF>
</x:xmpmeta>
                                                                                                    
                                                                                                    
                                                                                                    
                                                                                                    
                                                                                                    
                                                                                                    
                                                                                                    
                                                                                                    
                                                                                                    
                                                                                                    
                                                                                                    
                                                                                                    
                                                                                                    
                                                                                                    
                                                                                                    
                                                                                                    
                                                                                                    
                                                                                                    
                                                                                                    
                                                                                                    
                           
<?xpacket end="w"?></metadata>
<defs>
    <style>
      .cls-1 {
        fill: #fff;
        fill-rule: evenodd;
      }
    </style>
  </defs>
  <path id="YEONHEE_BAEK_copy" data-name="YEONHEE BAEK copy" class="cls-1" d="M138.574,50.456c-6.722-3.227-13.444-1.882-17.477,5.378l-47.055,84.16L25.375,55.565c-4.033-7.26-11.562-8.335-17.746-4.84C0.906,54.22-1.514,60.674,2.52,67.4l57.272,97.335v66.683c0,7.8,6.453,11.293,13.444,11.293,7.26,0,13.444-3.5,13.444-11.293V164.731l57.272-97.6C148.523,59.329,145.027,53.414,138.574,50.456Zm144.646-.269H190.993c-15.595,0-20.7,4.84-20.7,19.9V221.465c0,15.058,5.109,19.9,20.7,19.9H285.1c6.453,0,9.411-5.108,9.411-11.293s-2.958-11.293-9.411-11.293H197.178V154.513h80.664c6.184,0,9.142-5.108,9.142-11.293,0-5.915-2.958-11.024-9.142-11.024H197.178V72.773H283.22c6.453,0,9.411-5.109,9.411-11.293S289.673,50.187,283.22,50.187ZM395.333,47.23c-51.625,0-79.858,29.577-79.858,92.226v12.638c0,62.649,28.233,92.226,79.858,92.226s79.858-29.577,79.858-92.226V139.456C475.191,76.807,446.958,47.23,395.333,47.23Zm0,24.468c35.492,0,52.7,20.166,52.7,69.909v8.335c0,49.744-17.209,69.641-52.7,69.641s-52.7-19.9-52.7-69.641v-8.335C342.632,91.864,359.84,71.7,395.333,71.7Zm240.1-22.855c-6.453,0-12.368,3.227-12.368,10.755V208.559a113.388,113.388,0,0,0-11.294-25.813L546.7,70.084c-10.218-17.746-14.251-20.435-24.468-20.435-13.713,0-18.822,4.84-18.822,19.628V231.952c0,7.528,6.184,10.755,12.637,10.755s12.638-3.227,12.638-10.755V82.991c2.689,9.949,6.722,18.015,11.024,25.812l65.07,112.662C615,239.48,619.3,241.9,629.247,241.9c13.713,0,18.822-4.84,18.822-19.628V59.6C648.069,52.069,641.884,48.843,635.431,48.843Zm61.561,0c-6.991,0-13.444,3.5-13.444,11.293V231.414c0,7.8,6.453,11.293,13.444,11.293,7.26,0,13.713-3.5,13.713-11.293V152.631H800.78v78.783c0,7.8,6.185,11.293,13.176,11.293,7.259,0,13.713-3.5,13.713-11.293V60.136c0-7.8-6.454-11.293-13.713-11.293-6.991,0-13.176,3.5-13.176,11.293v69.909H710.705V60.136C710.705,52.338,704.252,48.843,696.992,48.843Zm279.087,1.344H883.852c-15.6,0-20.7,4.84-20.7,19.9V221.465c0,15.058,5.109,19.9,20.7,19.9h94.109c6.453,0,9.411-5.108,9.411-11.293s-2.958-11.293-9.411-11.293H890.036V154.513H970.7c6.184,0,9.142-5.108,9.142-11.293,0-5.915-2.958-11.024-9.142-11.024H890.036V72.773h86.043c6.453,0,9.41-5.109,9.41-11.293S982.532,50.187,976.079,50.187Zm152.441,0H1036.3c-15.6,0-20.71,4.84-20.71,19.9V221.465c0,15.058,5.11,19.9,20.71,19.9h94.11c6.45,0,9.41-5.108,9.41-11.293s-2.96-11.293-9.41-11.293h-87.93V154.513h80.67c6.18,0,9.14-5.108,9.14-11.293,0-5.915-2.96-11.024-9.14-11.024h-80.67V72.773h86.04c6.46,0,9.41-5.109,9.41-11.293S1134.98,50.187,1128.52,50.187Zm166.43,0H1245.2c-15.59,0-20.7,4.84-20.7,19.9V221.465c0,15.058,5.11,19.9,20.7,19.9h58.35c41.68,0,60.77-19.09,60.77-51.356v-4.84c0-27.426-15.6-40.87-39.8-44.366,22.86-5.646,30.93-21.779,30.93-39.256V97.779C1355.45,65.513,1335.82,50.187,1294.95,50.187Zm-43.56,80.4V72.773h34.15c30.65,0,42.75,7.26,42.75,26.35v2.957c0,21.242-11.02,28.5-41.14,28.5h-35.76Zm0,88.193V152.631h36.3c37.37,0,49.2,10.218,49.2,30.922v4.033c0,24.737-14.52,31.19-44.9,31.19h-40.6ZM1456,48.843c-6.99,0-12.64,2.958-16.14,12.1l-63.99,165.094c-2.96,7.8.54,13.175,7.26,15.6,6.99,2.42,14.25,1.345,16.94-6.722l18.28-48.936h74.48l17.75,48.13c3.23,8.873,10.75,9.679,18.01,7.528,6.73-2.151,10.49-8.6,7.53-16.4L1472.4,60.943C1468.9,51.8,1463.26,48.843,1456,48.843Zm-0.27,33.073c3.22,10.755,6.99,21.511,11.83,34.955l17.21,46.517h-58.35l17.48-46.517C1449.01,103.157,1452.23,93.746,1455.73,81.915Zm216.43-31.728h-92.22c-15.6,0-20.71,4.84-20.71,19.9V221.465c0,15.058,5.11,19.9,20.71,19.9h94.11c6.45,0,9.41-5.108,9.41-11.293s-2.96-11.293-9.41-11.293h-87.93V154.513h80.67c6.18,0,9.14-5.108,9.14-11.293,0-5.915-2.96-11.024-9.14-11.024h-80.67V72.773h86.04c6.46,0,9.41-5.109,9.41-11.293S1678.62,50.187,1672.16,50.187Zm52.96-1.344c-6.99,0-13.44,3.5-13.44,11.293V231.414c0,7.8,6.45,11.293,13.44,11.293,7.26,0,13.72-3.5,13.72-11.293v-55.39l23.12-23.662,67.76,85.505c4.84,6.453,12.64,6.184,18.01,1.613,5.92-4.571,7.53-11.562,2.15-18.015l-70.17-86.311,63.72-65.607c4.84-5.109,3.77-12.1-1.07-16.671-4.31-4.84-12.37-5.646-16.94-.538l-86.58,91.151V60.136C1738.84,52.338,1732.38,48.843,1725.12,48.843Z"/>
</svg>
